<svg width="25" height="25" viewBox="0 0 25 25" fill="none" xmlns="http://www.w3.org/2000/svg">
<path fill-rule="evenodd" clip-rule="evenodd" d="M2.57181 7.25937C2.64438 7.18661 2.73059 7.12889 2.8255 7.0895C2.92042 7.05012 3.02217 7.02985 3.12493 7.02985C3.22769 7.02985 3.32945 7.05012 3.42436 7.0895C3.51927 7.12889 3.60549 7.18661 3.67806 7.25937L12.4999 16.0828L21.3218 7.25937C21.3944 7.18673 21.4807 7.12911 21.5756 7.0898C21.6705 7.05049 21.7722 7.03026 21.8749 7.03026C21.9777 7.03026 22.0794 7.05049 22.1743 7.0898C22.2692 7.12911 22.3554 7.18673 22.4281 7.25937C22.5007 7.332 22.5583 7.41824 22.5976 7.51314C22.6369 7.60805 22.6572 7.70977 22.6572 7.81249C22.6572 7.91522 22.6369 8.01694 22.5976 8.11184C22.5583 8.20675 22.5007 8.29298 22.4281 8.36562L13.0531 17.7406C12.9805 17.8134 12.8943 17.8711 12.7994 17.9105C12.7044 17.9499 12.6027 17.9701 12.4999 17.9701C12.3972 17.9701 12.2954 17.9499 12.2005 17.9105C12.1056 17.8711 12.0194 17.8134 11.9468 17.7406L2.57181 8.36562C2.49905 8.29305 2.44133 8.20683 2.40194 8.11192C2.36256 8.01701 2.34229 7.91525 2.34229 7.81249C2.34229 7.70973 2.36256 7.60798 2.40194 7.51306C2.44133 7.41815 2.49905 7.33194 2.57181 7.25937Z" fill="#EFF6FF"/>
</svg>
