<svg width="17" height="18" viewBox="0 0 17 18" fill="none" xmlns="http://www.w3.org/2000/svg">
<g clip-path="url(#clip0_14_71)">
<rect x="0.8125" y="0.5" width="16" height="17" rx="8" fill="#2563EB"/>
<path d="M0.8125 9C0.8125 9 3.8125 3.5 8.8125 3.5C13.8125 3.5 16.8125 9 16.8125 9C16.8125 9 13.8125 14.5 8.8125 14.5C3.8125 14.5 0.8125 9 0.8125 9ZM8.8125 12.5C9.74076 12.5 10.631 12.1313 11.2874 11.4749C11.9438 10.8185 12.3125 9.92826 12.3125 9C12.3125 8.07174 11.9438 7.1815 11.2874 6.52513C10.631 5.86875 9.74076 5.5 8.8125 5.5C7.88424 5.5 6.994 5.86875 6.33763 6.52513C5.68125 7.1815 5.3125 8.07174 5.3125 9C5.3125 9.92826 5.68125 10.8185 6.33763 11.4749C6.994 12.1313 7.88424 12.5 8.8125 12.5Z" fill="#EFF6FF"/>
<path d="M11.3125 9C11.3125 9.70448 11.0491 10.3801 10.5803 10.8783C10.1114 11.3764 9.47554 11.6562 8.8125 11.6562C8.14946 11.6562 7.51357 11.3764 7.04473 10.8783C6.57589 10.3801 6.3125 9.70448 6.3125 9C6.3125 8.29552 6.57589 7.61989 7.04473 7.12175C7.51357 6.6236 8.14946 6.34375 8.8125 6.34375C9.47554 6.34375 10.1114 6.6236 10.5803 7.12175C11.0491 7.61989 11.3125 8.29552 11.3125 9Z" fill="#EFF6FF"/>
</g>
<defs>
<clipPath id="clip0_14_71">
<rect x="0.8125" y="0.5" width="16" height="17" rx="8" fill="white"/>
</clipPath>
</defs>
</svg>
