<svg width="26" height="25" viewBox="0 0 26 25" fill="none" xmlns="http://www.w3.org/2000/svg">
<path fill-rule="evenodd" clip-rule="evenodd" d="M12.6875 3.125C12.8947 3.125 13.0934 3.20731 13.2399 3.35382C13.3864 3.50034 13.4688 3.69905 13.4688 3.90625V11.7188H21.2812C21.4885 11.7188 21.6872 11.8011 21.8337 11.9476C21.9802 12.0941 22.0625 12.2928 22.0625 12.5C22.0625 12.7072 21.9802 12.9059 21.8337 13.0524C21.6872 13.1989 21.4885 13.2812 21.2812 13.2812H13.4688V21.0938C13.4688 21.301 13.3864 21.4997 13.2399 21.6462C13.0934 21.7927 12.8947 21.875 12.6875 21.875C12.4803 21.875 12.2816 21.7927 12.1351 21.6462C11.9886 21.4997 11.9062 21.301 11.9062 21.0938V13.2812H4.09375C3.88655 13.2812 3.68784 13.1989 3.54132 13.0524C3.39481 12.9059 3.3125 12.7072 3.3125 12.5C3.3125 12.2928 3.39481 12.0941 3.54132 11.9476C3.68784 11.8011 3.88655 11.7188 4.09375 11.7188H11.9062V3.90625C11.9062 3.69905 11.9886 3.50034 12.1351 3.35382C12.2816 3.20731 12.4803 3.125 12.6875 3.125Z" fill="#EFF6FF"/>
</svg>
