<svg width="21" height="24" viewBox="0 0 21 24" fill="none" xmlns="http://www.w3.org/2000/svg">
<path d="M1.90625 1.5625C1.49185 1.5625 1.09442 1.72712 0.801396 2.02015C0.50837 2.31317 0.34375 2.7106 0.34375 3.125V4.6875C0.34375 5.1019 0.50837 5.49933 0.801396 5.79235C1.09442 6.08538 1.49185 6.25 1.90625 6.25H2.6875V20.3125C2.6875 21.1413 3.01674 21.9362 3.60279 22.5222C4.18884 23.1083 4.9837 23.4375 5.8125 23.4375H15.1875C16.0163 23.4375 16.8112 23.1083 17.3972 22.5222C17.9833 21.9362 18.3125 21.1413 18.3125 20.3125V6.25H19.0938C19.5082 6.25 19.9056 6.08538 20.1986 5.79235C20.4916 5.49933 20.6562 5.1019 20.6562 4.6875V3.125C20.6562 2.7106 20.4916 2.31317 20.1986 2.02015C19.9056 1.72712 19.5082 1.5625 19.0938 1.5625H13.625C13.625 1.1481 13.4604 0.750671 13.1674 0.457646C12.8743 0.16462 12.4769 0 12.0625 0L8.9375 0C8.5231 0 8.12567 0.16462 7.83265 0.457646C7.53962 0.750671 7.375 1.1481 7.375 1.5625H1.90625ZM6.59375 7.8125C6.80095 7.8125 6.99966 7.89481 7.14618 8.04132C7.29269 8.18784 7.375 8.38655 7.375 8.59375V19.5312C7.375 19.7385 7.29269 19.9372 7.14618 20.0837C6.99966 20.2302 6.80095 20.3125 6.59375 20.3125C6.38655 20.3125 6.18784 20.2302 6.04132 20.0837C5.89481 19.9372 5.8125 19.7385 5.8125 19.5312V8.59375C5.8125 8.38655 5.89481 8.18784 6.04132 8.04132C6.18784 7.89481 6.38655 7.8125 6.59375 7.8125ZM10.5 7.8125C10.7072 7.8125 10.9059 7.89481 11.0524 8.04132C11.1989 8.18784 11.2812 8.38655 11.2812 8.59375V19.5312C11.2812 19.7385 11.1989 19.9372 11.0524 20.0837C10.9059 20.2302 10.7072 20.3125 10.5 20.3125C10.2928 20.3125 10.0941 20.2302 9.94757 20.0837C9.80106 19.9372 9.71875 19.7385 9.71875 19.5312V8.59375C9.71875 8.38655 9.80106 8.18784 9.94757 8.04132C10.0941 7.89481 10.2928 7.8125 10.5 7.8125ZM15.1875 8.59375V19.5312C15.1875 19.7385 15.1052 19.9372 14.9587 20.0837C14.8122 20.2302 14.6135 20.3125 14.4062 20.3125C14.199 20.3125 14.0003 20.2302 13.8538 20.0837C13.7073 19.9372 13.625 19.7385 13.625 19.5312V8.59375C13.625 8.38655 13.7073 8.18784 13.8538 8.04132C14.0003 7.89481 14.199 7.8125 14.4062 7.8125C14.6135 7.8125 14.8122 7.89481 14.9587 8.04132C15.1052 8.18784 15.1875 8.38655 15.1875 8.59375Z" fill="#EFF6FF"/>
</svg>
